HIERARCHY
ROOT Hips
{
	OFFSET -3.958830 18.904000 13.208200
	CHANNELS 6 Xposition Yposition Zposition Zrotation Yrotation Xrotation 
	JOINT LHipJoint
	{
		OFFSET 0.000000 0.000000 0.000000
		CHANNELS 3 Zrotation Yrotation Xrotation
		JOINT LeftUpLeg
		{
			OFFSET 1.800000 -1.400000 0.085000
			CHANNELS 3 Zrotation Yrotation Xrotation
			JOINT LeftLeg
			{
				OFFSET 2.215000 -6.000000 0.000000
				CHANNELS 3 Zrotation Yrotation Xrotation
				JOINT LeftFoot
				{
					OFFSET 2.500000 -6.900000 0.000000
					CHANNELS 3 Zrotation Yrotation Xrotation
					JOINT LeftToeBase
					{
						OFFSET 0.200000 -0.500000 1.950000
						CHANNELS 3 Zrotation Yrotation Xrotation
						End Site
						{
							OFFSET 0.000000 0.000000 0.000000
						}
					}
				}
			}
		}
	}
	JOINT RHipJoint
	{
		OFFSET 0.000000 0.000000 0.000000
		CHANNELS 3 Zrotation Yrotation Xrotation
		JOINT RightUpLeg
		{
			OFFSET -1.800000 -1.400000 0.085000
			CHANNELS 3 Zrotation Yrotation Xrotation
			JOINT RightLeg
			{
				OFFSET -2.215000 -6.000000 0.000000
				CHANNELS 3 Zrotation Yrotation Xrotation
				JOINT RightFoot
				{
					OFFSET -2.500000 -6.900000 0.000000
					CHANNELS 3 Zrotation Yrotation Xrotation
					JOINT RightToeBase
					{
						OFFSET -0.200000 -0.500000 1.950000
						CHANNELS 3 Zrotation Yrotation Xrotation
						End Site
						{
							OFFSET 0.000000 0.000000 0.000000
						}
					}
				}
			}
		}
	}
	JOINT LowerBack
	{
		OFFSET 0.000000 0.000000 0.000000
		CHANNELS 3 Zrotation Yrotation Xrotation
		JOINT Spine
		{
			OFFSET -0.087000 1.940000 -0.288900
			CHANNELS 3 Zrotation Yrotation Xrotation
			JOINT Spine1
			{
				OFFSET 0.000000 1.950000 0.060000
				CHANNELS 3 Zrotation Yrotation Xrotation
				JOINT Neck
				{
					OFFSET 0.000000 0.000000 0.000000
					CHANNELS 3 Zrotation Yrotation Xrotation
					JOINT Neck1
					{
						OFFSET 0.000000 1.600000 0.340000
						CHANNELS 3 Zrotation Yrotation Xrotation
						JOINT Head
						{
							OFFSET 0.000000 1.667000 -0.240000
							CHANNELS 3 Zrotation Yrotation Xrotation
							End Site
							{
								OFFSET 0.000000 0.000000 0.000000
							}
						}
					}
				}
				JOINT LeftShoulder
				{
					OFFSET 0.000000 0.000000 0.000000
					CHANNELS 3 Zrotation Yrotation Xrotation
					JOINT LeftArm
					{
						OFFSET 2.700000 1.550000 -0.730000
						CHANNELS 3 Zrotation Yrotation Xrotation
						JOINT LeftForeArm
						{
							OFFSET 5.450000 0.000000 0.000000
							CHANNELS 3 Zrotation Yrotation Xrotation
							JOINT LeftHand
							{
								OFFSET 3.450000 0.000000 0.000000
								CHANNELS 3 Zrotation Yrotation Xrotation
								JOINT LeftHandIndex1
								{
									OFFSET 0.750000 0.000000 0.000000
									CHANNELS 3 Zrotation Yrotation Xrotation
									End Site
									{
										OFFSET 0.000000 0.000000 0.000000
									}
								}
							}
						}
					}
				}
				JOINT RightShoulder
				{
					OFFSET 0.000000 0.000000 0.000000
					CHANNELS 3 Zrotation Yrotation Xrotation
					JOINT RightArm
					{
						OFFSET -2.700000 1.550000 -0.730000
						CHANNELS 3 Zrotation Yrotation Xrotation
						JOINT RightForeArm
						{
							OFFSET -5.450000 0.000000 0.000000
							CHANNELS 3 Zrotation Yrotation Xrotation
							JOINT RightHand
							{
								OFFSET -3.450000 0.000000 0.000000
								CHANNELS 3 Zrotation Yrotation Xrotation
								JOINT RightHandIndex1
								{
									OFFSET -0.750000 0.000000 0.000000
									CHANNELS 3 Zrotation Yrotation Xrotation
									End Site
									{
										OFFSET 0.000000 0.000000 0.000000
									}
								}
							}
						}
					}
				}
			}
		}
	}
}
MOTION
Frames: 7
Frame Time: 0.016667
0.722670 16.583780 -2.267820 -12.427744 -4.974066 -9.288518 -14.980403 11.865543 1.858024 29.414704 -1.229239 -10.310535 -5.695513 10.805799 28.025553 -0.508182 7.558689 1.936977 0.880900 0.127980 0.653050 18.900117 -8.289193 5.816874 -22.412530 7.109630 -55.214249 7.921609 -33.912484 88.307397 -3.529132 -16.452141 -0.232392 0.132390 0.083850 0.377200 -4.728738 -1.700361 -9.033760 26.227777 -13.121075 31.496326 -12.307734 -5.641658 7.823488 3.393605 -0.737128 -10.814798 -4.229676 -2.834655 36.530803 2.901190 -1.556090 -24.117230 -18.273117 -12.210432 3.826285 -15.754959 -0.324371 -5.043324 -160.632742 -54.289373 126.729811 -3.392427 3.447893 1.159300 -0.036900 0.111520 0.426320 11.046168 9.215931 9.374306 33.354118 -11.334598 -11.491946 91.293799 60.897490 44.855408 1.792280 -1.689905 -0.294850 0.254300 -0.174610 -0.537140 
0.793310 16.512900 -2.336970 -13.510054 -6.923020 -9.577075 -15.012383 11.519104 1.793221 30.908223 -1.065720 -10.167689 -6.081034 11.557500 29.308153 -0.424326 7.899851 1.830983 0.891210 0.150730 0.634970 18.979092 -7.765992 6.357742 -24.654621 7.882826 -60.543742 8.843187 -37.878775 92.801108 -3.895207 -17.598674 -0.413319 0.135830 0.094450 0.344940 -4.847822 -1.641891 -9.231335 27.445259 -15.231704 35.069264 -13.494077 -6.630271 7.249156 3.190782 -2.375727 -10.918111 -6.989354 -0.942882 36.117093 5.638480 -1.663320 -26.988520 -17.622953 -12.256380 4.069181 -13.288231 2.318540 -6.259804 -161.460594 -54.671190 127.889252 -3.322615 3.414020 1.194290 -0.086850 0.131350 0.453350 10.856950 10.322002 9.256280 31.316558 -9.460090 -11.026877 97.687448 62.831352 51.830946 1.919862 -1.486002 -0.306550 0.307020 -0.189980 -0.511320 
0.863620 16.419360 -2.405700 -14.572350 -9.573524 -9.447026 -15.081391 11.158161 1.827430 32.776512 -0.741087 -9.830415 -7.243073 12.618308 30.066397 -0.313789 8.313222 1.687916 0.937460 0.201490 0.669190 19.019488 -7.197825 6.864245 -27.114523 8.885899 -65.915434 11.123685 -41.924517 95.098666 -4.224214 -18.559413 -0.562405 0.147670 0.065010 0.349270 -4.901596 -1.622074 -9.459284 28.241169 -16.554456 38.839733 -14.116456 -6.892098 6.346105 3.169682 -3.410999 -10.837730 -8.527129 0.698337 35.091409 6.497990 -0.952490 -30.031220 -17.713987 -12.506881 4.001573 -10.075074 4.150568 -6.956788 -160.870206 -55.569552 127.888884 -3.249268 3.426458 1.222020 -0.134100 0.173810 0.472130 11.045238 11.340451 9.067843 28.486026 -8.385392 -10.889452 105.111982 64.292331 60.340132 2.020092 -1.266560 -0.286190 0.312020 -0.228000 -0.499680 
0.940820 16.305690 -2.466570 -15.593853 -12.828417 -9.851967 -15.170108 10.950186 1.899272 34.681710 -0.253827 -8.344551 -8.527425 13.772845 30.457577 -0.171369 8.785358 1.548343 0.904470 0.148390 0.664280 19.001859 -6.692577 7.267822 -29.113100 10.448214 -70.541429 13.790089 -45.293083 96.112816 -4.470565 -19.318591 -0.660317 0.098630 0.052940 0.354230 -4.872755 -1.748260 -9.686431 28.466420 -17.513913 44.005486 -14.307659 -6.778391 4.266057 3.220453 -4.027847 -10.993819 -9.666781 1.693982 35.047200 6.043810 -0.574030 -31.520460 -19.208599 -13.899748 4.143567 -5.437989 6.340953 -7.206844 -159.051645 -56.317876 126.326252 -3.208494 3.444845 1.246880 -0.155960 0.183800 0.460480 12.402461 13.438808 9.209544 24.233288 -8.326278 -11.213613 112.952448 65.044149 70.176150 2.032821 -1.055602 -0.287360 0.299690 -0.219510 -0.504110 
1.013090 16.155120 -2.502450 -15.579275 -15.903368 -9.910738 -15.276264 10.806971 1.921892 35.336139 0.165322 -6.821562 -10.280507 14.943519 30.711002 -0.054636 9.179513 1.448842 0.892360 0.136450 0.682920 18.958746 -6.205382 7.680714 -32.479992 11.056069 -74.926876 18.386741 -48.949164 94.869888 -4.629633 -19.750721 -0.702907 0.095300 0.039610 0.324870 -4.789214 -1.969447 -9.885007 26.976835 -17.072216 48.534573 -13.696225 -6.391434 2.087762 3.134905 -4.044231 -10.700952 -9.382542 2.237664 33.836747 5.273090 -0.119610 -32.751910 -20.658811 -14.605116 3.963573 -1.585968 7.285429 -6.771792 -153.344311 -57.542795 119.408635 -3.185972 3.445696 1.256290 -0.172160 0.185050 0.451810 14.005411 14.499974 8.832413 20.801020 -8.117685 -11.495531 118.938204 65.870560 79.294737 1.981035 -0.917241 -0.310210 0.317050 -0.232020 -0.513990 
1.085300 16.010860 -2.505510 -15.224978 -19.096948 -10.488519 -15.368398 10.851634 1.923923 35.373022 0.665840 -4.452639 -11.897653 15.866761 30.531149 0.080772 9.500249 1.385531 0.887070 0.138560 0.664440 18.880853 -5.909738 7.884156 -34.637575 12.215364 -76.745626 23.390477 -51.110001 91.907877 -4.677619 -19.753635 -0.680198 0.091760 0.053760 0.345400 -4.668753 -2.278978 -9.952910 25.453065 -16.363821 52.671624 -12.931681 -6.096156 -0.040619 3.153074 -4.844542 -10.372379 -10.478628 3.116121 32.142800 3.919230 -0.269020 -32.861170 -22.513348 -14.740756 3.858804 -0.253241 8.261160 -6.399366 -142.859625 -60.521735 107.707943 -3.224662 3.446974 1.235290 -0.159190 0.186890 0.463340 15.868117 15.688896 8.306080 17.908569 -7.167339 -11.918128 121.532602 67.039493 84.957633 1.935197 -0.807131 -0.293690 0.317190 -0.227520 -0.492560 
1.155420 15.874470 -2.485840 -14.332652 -22.578312 -11.184322 -15.458887 11.021264 1.944883 34.769240 1.355328 -2.049775 -13.655867 16.788209 30.256848 0.212821 9.734866 1.331395 0.958560 0.247320 0.689850 18.772652 -5.771278 7.904026 -35.343415 14.191700 -76.288759 26.408149 -51.290696 89.776614 -4.676193 -19.628445 -0.659311 0.155120 0.025390 0.355080 -4.493873 -2.641063 -9.938164 23.589189 -14.636224 55.462149 -11.766872 -5.371802 -1.450270 3.264500 -5.556831 -9.731902 -11.340964 3.852726 30.452142 2.116930 -0.491870 -32.087610 -25.014128 -14.332145 3.635158 -1.427524 8.043505 -6.067436 -125.918852 -63.811239 89.801987 -3.269892 3.449829 1.181050 -0.153120 0.199990 0.486810 18.218968 16.512924 7.421867 15.553195 -5.835256 -12.597944 122.591422 68.582322 89.043942 1.898900 -0.711638 -0.244550 0.300330 -0.268350 -0.468680 
